<?xml version="1.0" standalone="no"?>
<!DOCTYPE svg PUBLIC "-//W3C//DTD SVG 20010904//EN"
 "http://www.w3.org/TR/2001/REC-SVG-20010904/DTD/svg10.dtd">
<svg version="1.0" xmlns="http://www.w3.org/2000/svg"
 width="200.000000pt" height="200.000000pt" viewBox="0 0 200.000000 200.000000"
 preserveAspectRatio="xMidYMid meet">

<g transform="translate(0.000000,200.000000) scale(0.100000,-0.100000)"
fill="#000000" stroke="none">
<path d="M0 1000 l0 -1000 1000 0 1000 0 0 1000 0 1000 -1000 0 -1000 0 0
-1000z m1144 564 c93 -23 173 -71 256 -154 130 -130 175 -247 167 -435 -5
-129 -26 -193 -94 -297 -70 -106 -174 -185 -300 -227 -111 -37 -103 -50 -103
174 l0 194 67 3 c63 3 67 4 74 31 4 15 9 53 11 85 l3 57 -77 3 -78 3 0 70 c0
65 2 73 29 100 26 25 37 29 85 29 l56 0 0 70 c0 67 -1 70 -26 76 -43 11 -147
-2 -189 -24 -87 -44 -124 -117 -125 -239 l0 -82 -72 -3 -73 -3 0 -85 0 -85 73
-3 72 -3 0 -195 0 -196 -32 7 c-110 24 -230 94 -303 178 -196 224 -194 565 3
779 153 166 354 226 576 172z"/>
</g>
</svg>
