<?xml version="1.0" standalone="no"?>
<!DOCTYPE svg PUBLIC "-//W3C//DTD SVG 20010904//EN"
 "http://www.w3.org/TR/2001/REC-SVG-20010904/DTD/svg10.dtd">
<svg version="1.0" xmlns="http://www.w3.org/2000/svg"
 width="200.000000pt" height="200.000000pt" viewBox="0 0 200.000000 200.000000"
 preserveAspectRatio="xMidYMid meet">

<g transform="translate(0.000000,200.000000) scale(0.100000,-0.100000)"
fill="#000000" stroke="none">
<path d="M0 1000 l0 -1000 1000 0 1000 0 0 1000 0 1000 -1000 0 -1000 0 0
-1000z m1139 575 c111 -26 188 -71 277 -160 119 -117 174 -247 174 -408 0
-104 -15 -167 -62 -265 -112 -237 -384 -372 -638 -318 -318 67 -528 376 -466
687 48 237 231 423 459 469 69 13 188 11 256 -5z"/>
<path d="M766 1380 c-41 -13 -90 -48 -114 -84 -36 -52 -44 -123 -40 -329 3
-172 6 -196 25 -232 24 -46 54 -75 103 -101 29 -15 65 -19 226 -22 247 -5 292
3 355 67 29 28 51 61 58 86 15 56 14 426 -1 479 -16 53 -81 118 -134 134 -48
14 -431 16 -478 2z m483 -78 c65 -35 71 -60 71 -303 0 -208 -1 -217 -23 -250
-42 -63 -68 -69 -291 -69 -181 0 -204 2 -242 21 -31 15 -48 32 -63 63 -19 38
-21 61 -21 242 0 223 6 249 69 291 33 22 42 23 250 23 190 0 220 -2 250 -18z"/>
<path d="M1182 1248 c-28 -28 -7 -78 33 -78 12 0 26 5 33 12 7 7 12 21 12 33
0 12 -5 26 -12 33 -7 7 -21 12 -33 12 -12 0 -26 -5 -33 -12z"/>
<path d="M930 1184 c-151 -65 -166 -267 -26 -349 49 -29 126 -34 179 -11 43
17 93 76 108 125 46 153 -115 298 -261 235z m161 -93 c33 -33 39 -45 39 -82 0
-123 -131 -180 -216 -95 -85 85 -28 216 95 216 37 0 49 -6 82 -39z"/>
</g>
</svg>
