<?xml version="1.0" standalone="no"?>
<!DOCTYPE svg PUBLIC "-//W3C//DTD SVG 20010904//EN"
 "http://www.w3.org/TR/2001/REC-SVG-20010904/DTD/svg10.dtd">
<svg version="1.0" xmlns="http://www.w3.org/2000/svg"
 width="200.000000pt" height="200.000000pt" viewBox="0 0 200.000000 200.000000"
 preserveAspectRatio="xMidYMid meet">

<g transform="translate(0.000000,200.000000) scale(0.100000,-0.100000)"
fill="#000000" stroke="none">
<path d="M0 1000 l0 -1000 1000 0 1000 0 0 1000 0 1000 -1000 0 -1000 0 0
-1000z m1181 548 c98 -36 156 -74 229 -147 110 -112 160 -236 160 -401 0 -168
-49 -289 -164 -405 -183 -186 -456 -226 -689 -103 -84 45 -183 146 -229 233
-175 335 0 737 363 835 100 27 236 22 330 -12z"/>
<path d="M939 1420 c-178 -22 -330 -173 -360 -359 -24 -149 45 -313 170 -402
68 -49 81 -49 81 -3 0 19 12 81 27 137 17 69 26 130 27 188 1 71 5 91 20 108
21 23 75 28 94 9 18 -18 14 -88 -8 -152 -22 -65 -15 -99 24 -117 108 -49 209
169 141 301 -35 69 -142 99 -229 66 -110 -42 -165 -176 -110 -263 18 -29 8
-73 -15 -73 -27 0 -61 43 -77 96 -33 110 30 240 144 295 37 18 65 23 132 23
73 1 93 -3 142 -27 97 -48 145 -138 135 -252 -13 -142 -108 -245 -227 -245
-14 0 -42 9 -63 20 -41 22 -38 25 -58 -50 -6 -25 -20 -62 -31 -83 -11 -22 -17
-41 -15 -43 13 -13 120 -21 177 -13 87 13 159 48 225 110 100 95 141 196 133
333 -7 113 -36 182 -108 260 -103 110 -223 153 -371 136z"/>
</g>
</svg>
