<?xml version="1.0" standalone="no"?>
<!DOCTYPE svg PUBLIC "-//W3C//DTD SVG 20010904//EN"
 "http://www.w3.org/TR/2001/REC-SVG-20010904/DTD/svg10.dtd">
<svg version="1.0" xmlns="http://www.w3.org/2000/svg"
 width="200.000000pt" height="200.000000pt" viewBox="0 0 200.000000 200.000000"
 preserveAspectRatio="xMidYMid meet">

<g transform="translate(0.000000,200.000000) scale(0.100000,-0.100000)"
fill="#000000" stroke="none">
<path d="M0 1000 l0 -1000 1000 0 1000 0 0 1000 0 1000 -1000 0 -1000 0 0
-1000z m1115 548 c193 -42 364 -206 421 -403 23 -81 23 -239 0 -320 -55 -191
-219 -349 -412 -399 -78 -20 -212 -21 -287 -1 -239 62 -413 268 -433 513 -22
261 137 507 382 593 105 37 210 43 329 17z"/>
<path d="M885 1344 c-208 -67 -316 -302 -228 -498 17 -37 16 -41 -5 -123 -13
-47 -21 -87 -19 -89 2 -3 43 5 91 16 l87 21 59 -22 c90 -33 203 -25 288 21
128 68 196 180 196 326 1 73 -3 87 -37 157 -42 84 -90 132 -174 173 -67 33
-185 41 -258 18z m209 -64 c72 -28 139 -88 173 -158 23 -47 28 -69 27 -132 -1
-122 -58 -215 -166 -269 -77 -39 -167 -42 -254 -10 -49 18 -64 20 -103 11 -25
-6 -48 -8 -50 -6 -2 2 0 25 6 51 10 40 8 53 -7 83 -27 53 -40 137 -30 192 36
192 226 304 404 238z"/>
<path d="M816 1128 c-9 -12 -16 -31 -16 -42 0 -39 43 -106 104 -164 105 -98
188 -125 241 -79 32 27 26 48 -21 77 -43 25 -52 25 -79 0 -21 -19 -21 -19 -63
1 -41 20 -82 71 -82 101 0 9 7 21 15 28 21 17 19 25 -16 65 -36 40 -61 44 -83
13z"/>
</g>
</svg>
